<svg width="30" height="30" viewBox="0 0 30 30" fill="none" xmlns="http://www.w3.org/2000/svg">
<g clip-path="url(#clip0_141_5)">
<path d="M17.8535 0.638672C11.4961 0.638672 6.3457 5.78906 6.3457 12.1465C6.3457 14.8945 7.30664 17.4141 8.91211 19.3945L1.00195 27.3047C0.533203 27.7734 0.533203 28.5293 1.00195 28.998C1.4707 29.4668 2.22656 29.4668 2.69531 28.998L10.6055 21.0879C12.5859 22.6934 15.1055 23.6543 17.8535 23.6543C24.2109 23.6543 29.3613 18.5039 29.3613 12.1465C29.3613 5.78906 24.2051 0.638672 17.8535 0.638672ZM17.8535 21.2637C12.8203 21.2637 8.73633 17.1797 8.73633 12.1465C8.73633 7.11328 12.8203 3.0293 17.8535 3.0293C22.8867 3.0293 26.9707 7.11328 26.9707 12.1465C26.9707 17.1797 22.8867 21.2637 17.8535 21.2637Z" fill="#1D00C3"/>
</g>
<defs>
<clipPath id="clip0_141_5">
<rect width="30" height="30" fill="white"/>
</clipPath>
</defs>
</svg>
