<svg width="30" height="30" viewBox="0 0 30 30" fill="none" xmlns="http://www.w3.org/2000/svg">
<path d="M14.9998 0C6.72898 0 0 6.72898 0 15C0 18.8267 1.4412 22.4705 4.05788 25.2602C4.51291 25.7453 5.27477 25.7697 5.75999 25.3146C6.24505 24.8596 6.26946 24.0976 5.81442 23.6125C3.6181 21.2709 2.40843 18.2122 2.40843 15C2.40843 8.05699 8.05699 2.40843 14.9998 2.40843C21.9429 2.40843 27.5916 8.05699 27.5916 15C27.5916 21.943 21.9429 27.5916 14.9998 27.5916C13.769 27.5916 12.5624 27.4164 11.4 27.0699L12.6317 22.2556C13.3937 22.4416 14.18 22.5361 14.9827 22.5361C20.0416 22.5361 24.1575 18.7382 24.1575 14.07C24.1575 9.40169 20.0416 5.60361 14.9827 5.60361C9.92368 5.60361 5.80784 9.40169 5.80784 14.07C5.80784 15.7522 6.3409 17.3778 7.34955 18.7708C7.73956 19.3095 8.49259 19.4301 9.03112 19.0399C9.5698 18.6499 9.69022 17.897 9.30022 17.3583C8.59102 16.3787 8.21627 15.2418 8.21627 14.07C8.21627 10.7297 11.2517 8.01203 14.9827 8.01203C18.7136 8.01203 21.7491 10.7297 21.7491 14.07C21.7491 17.4102 18.7138 20.1277 14.9827 20.1277C14.3831 20.1277 13.7963 20.059 13.2287 19.9227L14.9144 13.3334C15.0792 12.689 14.6904 12.0331 14.0463 11.8682C13.4019 11.7033 12.746 12.0921 12.5811 12.7364L8.79204 27.5471C8.64143 28.1357 8.95308 28.7444 9.51842 28.9665C11.2647 29.6522 13.1091 30 14.9998 30C23.271 30 30 23.271 30 15C30 6.72898 23.271 0 14.9998 0Z" fill="white"/>
</svg>
