<svg width="20" height="20" viewBox="0 0 20 20" fill="none" xmlns="http://www.w3.org/2000/svg">
<g clip-path="url(#clip0_32_948)">
<path d="M16.1004 18.9447C15.9442 18.9447 15.789 18.8984 15.6559 18.8082L10.6271 15.397L7.92995 17.3378C7.71842 17.4899 7.44577 17.5282 7.20014 17.4404C6.95482 17.3523 6.76852 17.1491 6.70202 16.8972L5.34774 11.7648L0.508736 9.91455C0.204101 9.79802 0.00206725 9.50658 -0.000149426 9.18041C-0.0023661 8.85424 0.195657 8.56006 0.498813 8.43941L18.8985 1.11805C18.982 1.08258 19.0703 1.0621 19.1594 1.05661C19.1913 1.05471 19.2233 1.05471 19.255 1.05651C19.4396 1.06749 19.6208 1.14264 19.7622 1.28134C19.7769 1.2957 19.7908 1.31037 19.804 1.32568C19.9212 1.45952 19.9856 1.62271 19.9977 1.78896C20.0007 1.83076 20.0005 1.87309 19.9968 1.91542C19.9943 1.94561 19.9899 1.97569 19.9838 2.00556L16.878 18.3012C16.8281 18.563 16.6499 18.7821 16.4038 18.8842C16.3061 18.9247 16.203 18.9447 16.1004 18.9447ZM11.0687 13.7833L15.5481 16.8217L17.9647 4.14191L9.23663 12.5406L11.0475 13.769C11.0548 13.7736 11.0618 13.7784 11.0687 13.7833ZM7.33968 13.1076L7.93945 15.3802L9.23167 14.4504L7.53961 13.3026C7.46097 13.2494 7.39362 13.1831 7.33968 13.1076ZM2.96977 9.16025L6.29246 10.4306C6.53049 10.5216 6.71015 10.7217 6.77517 10.9681L7.19655 12.5651C7.21587 12.3809 7.29936 12.2075 7.435 12.077L15.7516 4.07435L2.96977 9.16025Z" fill="white"/>
</g>
<defs>
<clipPath id="clip0_32_948">
<rect width="20" height="20" fill="white"/>
</clipPath>
</defs>
</svg>
