<svg width="30" height="20" viewBox="0 0 30 20" fill="none" xmlns="http://www.w3.org/2000/svg">
<g clip-path="url(#clip0_89_26)">
<path fill-rule="evenodd" clip-rule="evenodd" d="M0 0H30V20H0V0Z" fill="#009EDB"/>
<path d="M16.5688 14.73C16.5014 14.807 16.4143 14.8789 16.3321 14.9452C15.8013 14.3966 15.1781 13.7886 14.5858 13.7886C14.2185 13.7886 13.954 14.0682 13.6454 14.2654C13.2172 14.5392 12.6298 14.6933 12.1264 14.4924C11.8557 14.3896 11.5933 14.2382 11.3973 13.9922C11.7935 14.2654 12.3868 14.3022 12.8341 14.1166C13.3285 13.9115 13.8317 13.6391 14.3951 13.6391C15.2257 13.6391 16.015 14.2009 16.5688 14.73ZM10.4303 13.0046C10.9802 13.6306 11.877 13.4292 12.6111 13.5856C12.7133 13.6073 12.8093 13.6412 12.9189 13.6244C12.8317 13.5691 12.716 13.5628 12.6152 13.5249C12.0456 13.3103 11.9568 12.7007 11.6451 12.2812C12.0432 12.5458 12.3731 12.9082 12.7454 13.2487C13.0045 13.4857 13.3273 13.5872 13.6621 13.6553C13.5817 13.6847 13.4764 13.6778 13.3898 13.6992C12.7884 13.8484 12.1216 14.0839 11.4817 13.8728C11.0687 13.7365 10.6389 13.4137 10.4303 13.0046ZM9.54882 11.5559C9.89182 12.3325 10.7536 12.3933 11.3266 12.8697C11.4355 12.9603 11.5436 13.0437 11.6632 13.0995L11.6694 13.0932C11.5372 12.9736 11.3941 12.831 11.2917 12.6822C10.9642 12.2063 11.0732 11.5559 10.8207 11.0514C11.0501 11.3261 11.2653 11.609 11.3974 11.9235C11.6099 12.4296 11.6822 13.007 12.1589 13.3916C11.6429 13.2214 11.0476 13.2553 10.583 12.9509C10.0945 12.631 9.64187 12.126 9.54882 11.5559ZM9.18139 9.98474C9.23099 10.6689 9.95939 11.0344 10.3067 11.5968C10.3809 11.717 10.4572 11.841 10.565 11.938C10.5482 11.8651 10.4882 11.8006 10.4552 11.7291C10.3439 11.4878 10.2934 11.2085 10.3212 10.9214C10.3551 10.572 10.5007 10.2475 10.4448 9.87999C10.7442 10.5262 10.6476 11.334 10.8207 12.0327C10.8589 12.1873 10.9531 12.3226 11.0111 12.469C10.7169 12.2452 10.3314 12.0466 10.0086 11.7921C9.69632 11.546 9.42527 11.2575 9.28439 10.8821C9.18289 10.6116 9.15647 10.289 9.18139 9.98474ZM9.20174 8.72409C9.23687 8.57139 9.26374 8.41334 9.33019 8.27327C9.20442 8.91869 9.63379 9.38492 9.78039 9.94332C9.83564 10.1537 9.85454 10.3773 9.93964 10.5737C9.94757 10.5779 9.95444 10.5697 9.95934 10.5633C9.74752 9.96907 10.058 9.41984 10.3606 8.95142C10.4401 8.82829 10.4784 8.68492 10.5155 8.53997C10.5482 8.80899 10.4909 9.12041 10.4412 9.39801C10.3771 9.75541 10.2549 10.0904 10.1579 10.4352C10.0939 10.6506 10.1108 10.8938 10.1436 11.1195L10.1127 11.0949C9.88752 10.6791 9.44314 10.3542 9.30894 9.90042C9.20169 9.53772 9.12749 9.11869 9.20174 8.72409ZM9.43929 8.02981C9.43929 7.54139 9.62947 7.14297 9.91474 6.77922C9.92302 6.77509 9.92892 6.76679 9.93959 6.76871C9.62557 7.24644 9.91139 7.84944 9.87104 8.39127L9.82962 8.94736C9.83577 8.95141 9.83577 8.96811 9.85037 8.96171C9.86892 8.89971 9.87454 8.83377 9.88534 8.76974C9.96094 8.32144 10.3546 8.00939 10.6885 7.69289C10.7648 7.62059 10.8243 7.5323 10.8625 7.43434C10.8347 7.65766 10.7724 7.88659 10.6722 8.08954C10.4152 8.60979 9.91889 9.02974 9.82962 9.62096C9.78634 9.05434 9.43929 8.63311 9.43929 8.02981ZM10.2671 6.38224C10.425 6.20714 10.602 6.07074 10.8127 6.01682C10.4035 6.29814 10.4258 6.80096 10.3005 7.22139C10.2547 7.37511 10.1874 7.51914 10.1516 7.67802L10.1619 7.68626C10.23 7.50666 10.3468 7.33402 10.499 7.19044C10.7867 6.91894 11.2194 6.75459 11.3618 6.35744C11.3553 6.90934 10.8848 7.32889 10.4552 7.65344C10.2624 7.79904 10.0987 7.99449 9.99872 8.19939C10.0154 8.04689 10.023 7.92001 10.0094 7.77116C9.96529 7.28904 9.93667 6.74856 10.2671 6.38224ZM11.9278 5.45432C11.6241 5.72077 11.4215 6.06374 11.1882 6.37204C10.9942 6.62847 10.728 6.78734 10.4991 7.00252C10.6226 6.74612 10.6455 6.45232 10.8024 6.20427C11.0708 5.78009 11.5144 5.61547 11.9278 5.45432Z" fill="white"/>
<path d="M13.4312 14.73C13.4986 14.807 13.5857 14.8789 13.6679 14.9452C14.1987 14.3966 14.8219 13.7886 15.4142 13.7886C15.7815 13.7886 16.046 14.0682 16.3546 14.2654C16.7828 14.5392 17.3702 14.6933 17.8736 14.4924C18.1443 14.3896 18.4067 14.2382 18.6027 13.9922C18.2065 14.2654 17.6132 14.3022 17.1659 14.1166C16.6715 13.9115 16.1683 13.6391 15.6049 13.6391C14.7743 13.6391 13.985 14.2009 13.4312 14.73ZM19.5697 13.0046C19.0198 13.6306 18.123 13.4292 17.3889 13.5856C17.2867 13.6073 17.1907 13.6412 17.0811 13.6244C17.1683 13.5691 17.284 13.5628 17.3848 13.5249C17.9544 13.3103 18.0432 12.7007 18.3549 12.2812C17.9568 12.5458 17.6269 12.9082 17.2546 13.2487C16.9955 13.4857 16.6727 13.5872 16.3379 13.6553C16.4183 13.6847 16.5236 13.6778 16.6102 13.6992C17.2116 13.8484 17.8784 14.0839 18.5183 13.8728C18.9313 13.7365 19.3611 13.4137 19.5697 13.0046ZM20.4512 11.5559C20.1082 12.3325 19.2464 12.3933 18.6734 12.8697C18.5645 12.9603 18.4564 13.0437 18.3368 13.0995L18.3306 13.0932C18.4628 12.9736 18.6059 12.831 18.7083 12.6822C19.0358 12.2063 18.9268 11.5559 19.1793 11.0514C18.9499 11.3261 18.7347 11.609 18.6026 11.9235C18.3901 12.4296 18.3178 13.007 17.8411 13.3916C18.3571 13.2214 18.9524 13.2553 19.417 12.9509C19.9055 12.631 20.3581 12.126 20.4512 11.5559ZM20.8186 9.98474C20.769 10.6689 20.0406 11.0344 19.6933 11.5968C19.6191 11.717 19.5428 11.841 19.435 11.938C19.4518 11.8651 19.5118 11.8006 19.5448 11.7291C19.6561 11.4878 19.7066 11.2085 19.6788 10.9214C19.6449 10.572 19.4993 10.2475 19.5552 9.87999C19.2558 10.5262 19.3524 11.334 19.1793 12.0327C19.1411 12.1873 19.0469 12.3226 18.9889 12.469C19.2831 12.2452 19.6686 12.0466 19.9914 11.7921C20.3037 11.546 20.5747 11.2575 20.7156 10.8821C20.8171 10.6116 20.8435 10.289 20.8186 9.98474ZM20.7983 8.72409C20.7631 8.57139 20.7363 8.41334 20.6698 8.27327C20.7956 8.91869 20.3662 9.38492 20.2196 9.94332C20.1644 10.1537 20.1455 10.3773 20.0604 10.5737C20.0524 10.5779 20.0456 10.5697 20.0407 10.5633C20.2525 9.96907 19.942 9.41984 19.6394 8.95142C19.5599 8.82829 19.5216 8.68492 19.4845 8.53997C19.4518 8.80899 19.5091 9.12041 19.5588 9.39801C19.6229 9.75541 19.7451 10.0904 19.8421 10.4352C19.9061 10.6506 19.8892 10.8938 19.8564 11.1195L19.8873 11.0949C20.1125 10.6791 20.5569 10.3542 20.6911 9.90042C20.7983 9.53772 20.8725 9.11869 20.7983 8.72409ZM20.5607 8.02981C20.5607 7.54139 20.3705 7.14297 20.0853 6.77922C20.077 6.77509 20.0711 6.76679 20.0604 6.76871C20.3744 7.24644 20.0886 7.84944 20.129 8.39127L20.1704 8.94736C20.1642 8.95141 20.1642 8.96811 20.1496 8.96171C20.1311 8.89971 20.1255 8.83377 20.1147 8.76974C20.0391 8.32144 19.6454 8.00939 19.3115 7.69289C19.2352 7.62059 19.1757 7.5323 19.1375 7.43434C19.1653 7.65766 19.2276 7.88659 19.3278 8.08954C19.5848 8.60979 20.0811 9.02974 20.1704 9.62096C20.2137 9.05434 20.5607 8.63311 20.5607 8.02981ZM19.7329 6.38224C19.575 6.20714 19.398 6.07074 19.1873 6.01682C19.5965 6.29814 19.5742 6.80096 19.6995 7.22139C19.7453 7.37511 19.8126 7.51914 19.8484 7.67802L19.8381 7.68626C19.77 7.50666 19.6532 7.33402 19.501 7.19044C19.2133 6.91894 18.7806 6.75459 18.6382 6.35744C18.6447 6.90934 19.1152 7.32889 19.5448 7.65344C19.7376 7.79904 19.9013 7.99449 20.0013 8.19939C19.9846 8.04689 19.977 7.92001 19.9906 7.77116C20.0347 7.28904 20.0633 6.74856 19.7329 6.38224ZM18.0722 5.45432C18.3759 5.72077 18.5785 6.06374 18.8118 6.37204C19.0058 6.62847 19.272 6.78734 19.5009 7.00252C19.3774 6.74612 19.3545 6.45232 19.1976 6.20427C18.9292 5.78009 18.4856 5.61547 18.0722 5.45432Z" fill="white"/>
<path d="M18.7082 10.9713L18.6185 10.9223C18.4292 11.3125 18.1783 11.6697 17.8754 11.98L17.3514 11.456C17.6081 11.1915 17.8151 10.8913 17.9676 10.5668L17.8783 10.518C17.7284 10.838 17.5262 11.131 17.2802 11.3848L16.8055 10.9101C17.0064 10.7016 17.1696 10.4597 17.2877 10.1954L17.1991 10.1471C17.0856 10.403 16.9284 10.6372 16.7345 10.8392L16.21 10.3147C16.3539 10.1625 16.4676 9.98434 16.5451 9.78976L16.4565 9.74143C16.3838 9.92764 16.2762 10.0982 16.1394 10.244L15.6633 9.76798C15.7985 9.61773 15.878 9.42567 15.8887 9.22386H16.5626C16.557 9.40117 16.5212 9.57623 16.4565 9.74143L16.5451 9.78976C16.6168 9.60939 16.6563 9.41785 16.6618 9.22383H17.4047C17.3983 9.5422 17.3284 9.85608 17.1991 10.1471L17.2877 10.1954C17.4228 9.89288 17.4974 9.56413 17.504 9.22378H18.1766C18.1701 9.67144 18.0683 10.1126 17.8782 10.5179L17.9675 10.5668C18.1628 10.1512 18.269 9.69563 18.276 9.22381H19.0188C19.0114 9.83176 18.8682 10.4074 18.6185 10.9223L18.7082 10.9712C18.9768 10.418 19.1194 9.80716 19.1194 9.17413C19.1194 8.63581 19.0162 8.11356 18.8203 7.62906L18.7282 7.66863C18.9128 8.12583 19.0128 8.61751 19.019 9.12448H18.2761C18.27 8.72003 18.1906 8.32783 18.0452 7.96223L17.9538 8.00138C18.0941 8.35483 18.1708 8.73373 18.1767 9.12448H17.504C17.4986 8.83105 17.4415 8.54087 17.3354 8.26723L17.244 8.30648C17.3449 8.56769 17.3993 8.84453 17.4048 9.12448H16.6619C16.6568 8.94535 16.6229 8.76821 16.5612 8.59993L16.4699 8.63913C16.5264 8.79496 16.5577 8.9588 16.5627 9.12448H15.8888C15.8781 8.92266 15.7985 8.7306 15.6633 8.58036L16.1399 8.10386C16.2871 8.26036 16.3984 8.44211 16.4699 8.63916L16.5612 8.59996C16.4847 8.39156 16.3663 8.19928 16.21 8.03366L16.7354 7.50838C16.9595 7.74171 17.1306 8.01261 17.244 8.30648L17.3354 8.26723C17.217 7.96198 17.0388 7.68053 16.8056 7.43818L17.2812 6.96243C17.5758 7.26626 17.8021 7.61878 17.9538 8.00141L18.0452 7.96223C17.8885 7.56818 17.655 7.20513 17.3514 6.89236L17.8767 6.36701C18.2482 6.74756 18.5347 7.18913 18.7282 7.66866L18.8203 7.62908C18.6158 7.12311 18.3101 6.65838 17.9126 6.26088C17.5136 5.86188 17.0469 5.55551 16.5387 5.35101L16.5021 5.44418C16.9827 5.63776 17.4252 5.92463 17.8065 6.29681L17.2812 6.82213C16.9737 6.52413 16.6175 6.29313 16.2307 6.13663L16.1945 6.22903C16.5685 6.38076 16.9132 6.60418 17.211 6.89313L16.7354 7.36878C16.5042 7.14633 16.2376 6.97361 15.9485 6.85536L15.9122 6.94773C16.1888 7.06106 16.4438 7.22636 16.6652 7.43898L16.14 7.96423C15.9922 7.82498 15.8233 7.71568 15.6407 7.63946L15.6044 7.73191C15.7764 7.80412 15.934 7.9066 16.0698 8.03448L15.5933 8.51098C15.4418 8.37533 15.252 8.29671 15.049 8.28563V7.61176C15.24 7.61741 15.4282 7.65814 15.6044 7.73193L15.6407 7.63946C15.4551 7.56193 15.2553 7.51851 15.0491 7.51246V6.76953C15.3499 6.77558 15.6413 6.83671 15.9123 6.94776L15.9485 6.85536C15.6662 6.73986 15.3624 6.67636 15.0491 6.67031V5.99731C15.4479 6.00341 15.8347 6.08296 16.1944 6.22881L16.2307 6.13641C15.8595 5.98606 15.4606 5.90416 15.049 5.89806V5.15506C15.555 5.16121 16.0458 5.26093 16.5021 5.44468L16.5387 5.35151C16.0559 5.15708 15.5356 5.05466 14.9994 5.05466C14.3371 5.05466 13.7112 5.21268 13.1562 5.49158L13.2015 5.57823C13.7385 5.30913 14.3327 5.16253 14.9498 5.15508V5.89808C14.4626 5.90505 13.9832 6.02131 13.5469 6.23828L13.592 6.32468C14.0098 6.11786 14.4711 6.00453 14.9498 5.99723V6.66998C14.5872 6.67683 14.2305 6.76285 13.9046 6.92201L13.9499 7.00881C14.2585 6.85906 14.5977 6.77631 14.9498 6.76921V7.51218C14.7231 7.51872 14.5002 7.57182 14.2949 7.66818L14.3406 7.75533C14.5297 7.66743 14.7361 7.61801 14.9498 7.61138V8.28538C14.8479 8.29099 14.7477 8.31414 14.6537 8.35381L14.6992 8.44088C14.7945 8.40194 14.8965 8.38198 14.9995 8.38213C15.2111 8.38213 15.4101 8.46456 15.5598 8.61421C15.7095 8.76388 15.7919 8.96296 15.7919 9.17463C15.7919 9.61158 15.4365 9.96718 14.9994 9.96718C14.7877 9.96718 14.5887 9.88473 14.439 9.73506C14.2893 9.58531 14.2069 9.38631 14.2069 9.17463C14.2069 8.96293 14.2893 8.76388 14.439 8.61421C14.5134 8.53972 14.6018 8.48079 14.6992 8.44088L14.6536 8.35378C14.5629 8.3921 14.4792 8.4452 14.4059 8.51091L13.9291 8.03413C14.0505 7.91982 14.1894 7.82569 14.3405 7.75531L14.2949 7.66816C14.135 7.74324 13.988 7.84325 13.8594 7.96446L13.3336 7.43863C13.5153 7.26396 13.7232 7.11891 13.9499 7.00878L13.9045 6.92198C13.6691 7.03683 13.4531 7.18773 13.2643 7.36923L12.7878 6.89278C13.0247 6.66276 13.296 6.47109 13.592 6.32466L13.5468 6.23826C13.2422 6.38945 12.9628 6.58693 12.7186 6.82368L12.1922 6.29731C12.4895 6.00694 12.8299 5.76438 13.2014 5.57823L13.1562 5.49158C12.354 5.89471 11.7009 6.55166 11.3032 7.35701L11.3896 7.40358C11.5774 7.02164 11.8246 6.67192 12.1221 6.36746L12.6485 6.89386C12.4022 7.1475 12.1984 7.43922 12.0449 7.75776L12.1309 7.80418C12.2777 7.49761 12.4744 7.21366 12.7175 6.96298L13.194 7.43946C13.0008 7.64051 12.8424 7.87231 12.7253 8.12536L12.8115 8.17186C12.9239 7.92706 13.0767 7.70292 13.2634 7.50883L13.7892 8.03466C13.6538 8.17828 13.5449 8.3448 13.4677 8.52648L13.5545 8.57348C13.6269 8.40001 13.73 8.24105 13.8589 8.10428L14.3356 8.58103C14.2047 8.72733 14.1216 8.91646 14.1101 9.12491H13.4361C13.4417 8.93541 13.4819 8.74853 13.5545 8.57343L13.4676 8.52643C13.3871 8.71603 13.3428 8.91901 13.3368 9.12491H12.5939C12.6006 8.79058 12.6756 8.46776 12.8114 8.17181L12.7252 8.12531C12.5798 8.43889 12.5013 8.77933 12.4948 9.12493H11.822C11.829 8.66033 11.9356 8.21213 12.1309 7.80413L12.0449 7.75771C11.8451 8.17271 11.7302 8.63593 11.7229 9.12493H10.9798C10.9871 8.51816 11.1289 7.93348 11.3895 7.40356L11.3032 7.35698C11.0323 7.90563 10.8794 8.52246 10.8794 9.17458C10.8794 9.57348 10.9364 9.96333 11.0452 10.3358L11.1425 10.3113C11.0389 9.95805 10.9842 9.59231 10.9798 9.22423H11.7227C11.727 9.53117 11.7744 9.836 11.8633 10.1298L11.9596 10.1056C11.8735 9.82311 11.8266 9.52713 11.822 9.22423H12.4947C12.4994 9.46758 12.5394 9.70895 12.6135 9.94078L12.71 9.91643C12.6377 9.6926 12.5986 9.45939 12.594 9.22423H13.3368C13.3418 9.39829 13.3741 9.57048 13.4324 9.73453L13.529 9.71016C13.4725 9.55414 13.4411 9.39013 13.4361 9.22426H14.11C14.1207 9.42607 14.2002 9.61812 14.3354 9.76838L13.8589 10.2449C13.7119 10.0885 13.6006 9.90696 13.529 9.71018L13.4324 9.73453C13.5087 9.94838 13.6289 10.1457 13.7887 10.3151L13.2634 10.8404C13.0079 10.5744 12.8209 10.2591 12.7102 9.91663L12.6137 9.94098C12.7287 10.3006 12.9248 10.6315 13.1934 10.9107L12.7177 11.3865C12.362 11.0196 12.105 10.582 11.9598 10.1057L11.8635 10.13C12.0131 10.6234 12.2789 11.0769 12.6475 11.4566L12.1222 11.9819C11.6573 11.5056 11.3253 10.9339 11.1427 10.3115L11.0454 10.336C11.2369 10.9912 11.5902 11.5919 12.0864 12.088C12.4224 12.4241 12.8065 12.6946 13.2229 12.894L13.2722 12.8065C12.8781 12.6187 12.5136 12.3656 12.1924 12.0521L12.7177 11.5268C12.9864 11.788 13.2979 12.0012 13.6386 12.1571L13.6876 12.0701C13.3587 11.9209 13.0545 11.7151 12.7879 11.4567L13.2636 10.981C13.4866 11.1955 13.7425 11.3636 14.0197 11.4814L14.0687 11.3946C13.7995 11.2816 13.5505 11.1191 13.334 10.9111L13.8593 10.3858C14.0281 10.545 14.2246 10.665 14.4376 10.7413L14.4873 10.6534C14.2796 10.5814 14.0895 10.4663 13.9295 10.3156L14.406 9.83906C14.5574 9.97481 14.7472 10.0534 14.9502 10.0645V10.7385C14.7925 10.7336 14.6364 10.7049 14.4873 10.6534L14.4376 10.7413C14.6023 10.8002 14.7753 10.8328 14.9502 10.8377V11.5805C14.6428 11.5744 14.3449 11.5107 14.0689 11.395L14.02 11.4818C14.311 11.6055 14.6253 11.6736 14.9502 11.6798V12.3526C14.5075 12.3457 14.08 12.2484 13.6878 12.0705L13.6388 12.1574C14.0459 12.3435 14.4902 12.4449 14.9502 12.4518V13.1946C14.3601 13.1875 13.7907 13.0538 13.2724 12.8069L13.2231 12.8943C13.7708 13.1565 14.3746 13.2951 14.9998 13.2951C15.6557 13.2951 16.2876 13.1418 16.8563 12.8541L16.8093 12.763C16.279 13.0316 15.6819 13.1869 15.0494 13.1947V12.4518C15.5509 12.4444 16.0336 12.3242 16.4697 12.1048L16.4234 12.0149C15.9968 12.23 15.527 12.3454 15.0494 12.3525V11.6798C15.4256 11.6725 15.7878 11.5823 16.1158 11.4186L16.0697 11.3292C15.7525 11.4876 15.4039 11.5735 15.0494 11.5805V10.8377C15.289 10.8307 15.5197 10.773 15.7296 10.6702L15.6839 10.5813C15.4859 10.678 15.2696 10.7316 15.0494 10.7384V10.0645C15.2512 10.0538 15.4433 9.97427 15.5936 9.83906L16.0696 10.3151C15.9551 10.4226 15.825 10.5124 15.6839 10.5813L15.7296 10.6702C15.8801 10.5966 16.0185 10.5007 16.1403 10.3858L16.6647 10.9103C16.4887 11.0792 16.2881 11.2204 16.0697 11.3292L16.1158 11.4186C16.3435 11.3052 16.5525 11.1577 16.7358 10.9813L17.2104 11.4559C16.978 11.6811 16.7126 11.8696 16.4234 12.015L16.4697 12.1049C16.7682 11.9548 17.042 11.76 17.2816 11.5272L17.8056 12.0512C17.5133 12.3365 17.1772 12.5768 16.8093 12.763L16.8563 12.8541C17.2469 12.6565 17.6036 12.398 17.913 12.0883C18.2436 11.7579 18.5103 11.3807 18.7087 10.9722L18.7082 10.9713Z" fill="white"/>
<path d="M15.2105 8.22177L15.2117 8.2516L15.2368 8.2504L15.2354 8.22077L15.2105 8.22177ZM15.174 8.18112H15.2072V8.20642H15.174V8.18112ZM15.1433 8.17665L15.1468 8.15162L15.1177 8.14745L15.1142 8.17227L15.1433 8.17665ZM15.0895 8.1638L15.0605 8.1596L15.0641 8.1345L15.0931 8.1387L15.0895 8.1638ZM14.85 8.13037H14.8832V8.1557H14.85V8.13037ZM14.8066 8.185L14.8102 8.15995L14.7812 8.15577L14.7777 8.18082L14.8066 8.185ZM14.7806 8.21902L14.7473 8.21057L14.7534 8.18602L14.7867 8.1945L14.7806 8.21902ZM14.7211 8.2502L14.717 8.22487L14.7416 8.22075L14.7458 8.24605L14.7211 8.2502ZM11.4589 10.8929H11.484L11.4796 10.8297L11.4464 10.817V10.7959H11.4256V10.8381H11.4589V10.8929ZM11.7166 11.0784L11.7456 11.0997L11.7748 11.1629L11.7582 11.1923L11.7125 11.1502L11.6792 11.1038L11.6626 11.0659L11.6334 10.9899L11.6957 11.0194L11.7166 11.0784ZM12.7057 12.3438L12.6765 12.3607L12.6599 12.3355L12.6184 12.3227L12.6143 12.2848L12.581 12.2341L12.6309 12.2426L12.6848 12.289L12.7057 12.3438ZM14.8709 8.49307H14.8252L14.8168 8.40032L14.8418 8.38337V8.337H14.6963L14.6922 8.29065L14.713 8.27797L14.6797 8.26532L14.6548 8.29902L14.6465 8.337L14.6049 8.34547V8.36652H14.5759V8.42132L14.4595 8.51832L14.2268 8.50995C14.2101 8.54787 14.1685 8.5057 14.1685 8.5057C14.1603 8.4804 14.1021 8.5057 14.1021 8.5057C14.1021 8.55212 14.0231 8.48462 14.0231 8.48462L13.8776 8.37915C13.7945 8.30325 13.6699 8.40027 13.6657 8.42132C13.6699 8.4804 13.5702 8.434 13.5702 8.434C13.5702 8.434 13.4871 8.40872 13.4746 8.44247C13.4621 8.47617 13.408 8.4678 13.408 8.4678L13.3997 8.48465L13.3581 8.49307L13.3499 8.51835L13.3 8.52685L13.4246 8.5226C13.4579 8.51837 13.4121 8.59432 13.3914 8.5901L13.3333 8.59432L13.3124 8.61537H13.2584L13.2335 8.64917L13.1546 8.64492C13.1546 8.64492 13.1088 8.6829 13.113 8.69552C13.1172 8.7082 13.1047 8.74617 13.0922 8.74617C13.0797 8.74617 13.0548 8.7841 13.0631 8.79675C13.0715 8.80942 13.0382 8.8516 13.0382 8.8516L13.0299 8.89382L13.005 8.9022V9.0161L12.9551 9.04985V9.10045L12.8802 9.1806L12.8886 9.24805L12.8263 9.31555L12.8345 9.38305L12.7971 9.3957L12.7889 9.4252L12.7723 9.51375L12.8138 9.518C12.8345 9.50955 12.8304 9.57285 12.8138 9.58125C12.7971 9.5897 12.7514 9.60652 12.7764 9.62337C12.8014 9.64032 12.7099 9.63607 12.7099 9.61075C12.7099 9.5855 12.66 9.56437 12.6476 9.57282C12.6351 9.58122 12.6143 9.53487 12.6143 9.53487C12.5686 9.4885 12.4273 9.53907 12.4273 9.53907L12.4064 9.60655C12.3608 9.61502 12.3317 9.69092 12.3317 9.69092C12.2943 9.7036 12.2652 9.74992 12.2777 9.7626C12.2901 9.77527 12.2569 9.77947 12.2569 9.77947V9.8723L12.2361 9.9018L12.2402 10.003C12.2652 10.003 12.2611 10.0494 12.2611 10.0494C12.2195 10.0536 12.2277 10.1085 12.2277 10.1085L12.1405 10.138L12.1239 10.1633L12.0159 10.159L11.9868 10.1886L11.9576 10.159H11.7498L11.7416 10.138L11.7 10.1295L11.6958 10.0831L11.6335 10.0873L11.6211 10.1126L11.5545 10.1168C11.5587 10.159 11.488 10.2223 11.4798 10.2055C11.4714 10.1886 11.4257 10.1421 11.4465 10.1338C11.4673 10.1253 11.5214 10.1168 11.5214 10.1168V10.0873L11.3675 10.0831L11.351 10.1085L11.2886 10.1126V10.1801L11.2595 10.1886C11.2387 10.2012 11.2636 10.2476 11.2636 10.2476C11.2927 10.2771 11.2595 10.3235 11.2595 10.3235C11.2345 10.3488 11.2802 10.3953 11.2802 10.3953C11.3135 10.4036 11.2595 10.429 11.2595 10.429C11.2677 10.4711 11.2927 10.4838 11.2927 10.4838C11.2677 10.5259 11.3094 10.547 11.3094 10.547L11.3135 10.6188L11.3426 10.6357V10.682L11.3592 10.7115H11.4257L11.4216 10.6061C11.3634 10.5386 11.4714 10.5217 11.4756 10.547C11.4798 10.5723 11.5255 10.585 11.5255 10.585C11.5338 10.6483 11.6045 10.6862 11.6252 10.623C11.646 10.5596 11.6626 10.5976 11.6751 10.6271C11.6876 10.6567 11.7664 10.7284 11.7664 10.7284H11.8288L11.8372 10.7875C11.9078 10.7832 11.9285 10.7918 11.9576 10.8887C11.9868 10.9856 12.0657 11.0109 12.0657 11.0109L12.1239 11.0067C12.1239 10.9562 12.1821 11.0152 12.1821 11.0406C12.1821 11.0658 12.2943 11.1628 12.2943 11.1628L12.4065 11.1881L12.5105 11.2725L12.5894 11.2641H12.6227C12.6434 11.1923 12.7432 11.2682 12.7514 11.2936C12.7598 11.3189 12.8263 11.3611 12.8345 11.3399C12.8429 11.3189 12.8886 11.3316 12.8969 11.3948C12.9052 11.4581 12.9343 11.4454 12.9343 11.4454L13.1712 11.4412L13.2543 11.3694L13.4663 11.3653C13.5743 11.3611 13.5078 11.2134 13.4871 11.2134C13.4497 11.1839 13.4995 11.0616 13.4995 11.0616L13.1961 10.779C13.1255 10.779 13.1878 10.6778 13.1878 10.6778C13.2418 10.644 13.1753 10.5893 13.1753 10.5893C13.1837 10.5386 13.1462 10.4795 13.1462 10.4795C13.0715 10.4289 13.0922 10.3319 13.0922 10.3319V10.2644C13.0299 10.2054 13.1172 10.1969 13.1172 10.1969C13.1462 10.1464 13.0963 10.1084 13.0963 10.1084L13.0922 10.0535L13.0257 10.045L13.0175 9.8468L12.8678 9.63177C12.8387 9.62327 12.8595 9.5727 12.8595 9.5727C12.8969 9.5516 12.8511 9.50105 12.8511 9.50105L12.847 9.40822L12.9342 9.39972L12.955 9.36605H12.9966L12.9925 9.25637C13.0132 9.20155 13.0631 9.23105 13.0631 9.23105L13.1212 9.2353L13.1545 9.172L13.1628 9.12137L13.1171 9.1172C13.0672 9.08765 13.0922 8.97802 13.0922 8.97802C13.1711 8.85987 13.2625 8.92737 13.2625 8.92737L13.3208 8.9232C13.408 8.9822 13.329 9.09187 13.329 9.09187C13.3124 9.1172 13.3208 9.19732 13.3208 9.19732L13.3415 9.33225L13.2875 9.3787C13.2418 9.40402 13.2418 9.46305 13.2917 9.4757C13.3249 9.47987 13.3124 9.56005 13.2625 9.5052C13.1878 9.5052 13.3042 9.5727 13.2709 9.55575C13.3457 9.59375 13.329 9.52205 13.329 9.52205L13.4288 9.4419C13.4663 9.4124 13.5328 9.5052 13.5328 9.51787C13.5328 9.5305 13.699 9.52202 13.699 9.52202C13.7447 9.55155 13.7613 9.62752 13.7613 9.62752C13.807 9.5684 13.9026 9.62322 13.832 9.65702C13.8984 9.6992 13.8984 9.73712 13.8984 9.73712C13.9525 9.72027 13.9525 9.76245 13.9525 9.77512C13.9525 9.78777 13.9691 9.71187 13.9691 9.71187C13.9068 9.66545 14.0522 9.64857 14.0107 9.73295L13.9857 9.77095L14.0273 9.80465L14.0314 9.9017C14.1229 9.8932 14.0979 9.77932 14.0979 9.77932L14.1395 9.77092C14.1395 9.73292 14.1685 9.75402 14.1685 9.75402C14.1395 9.6106 14.2351 9.58535 14.2351 9.58535C14.2891 9.5727 14.2932 9.45875 14.2932 9.45875C14.2559 9.4419 14.2766 9.38287 14.3182 9.43352C14.3597 9.48405 14.2932 9.33222 14.2932 9.33222L14.26 9.30272L14.2143 9.29852L14.2101 9.25212H14.1353L14.1228 9.3112L14.0938 9.31962L14.0854 9.30272L14.073 9.34912H13.9982L13.9941 9.29852L14.0398 9.28587L14.0564 9.26057L14.0688 9.19307H14.1229L14.1935 9.172C14.1976 9.1003 14.2351 9.1172 14.2351 9.1172L14.26 9.13825L14.2974 9.16777L14.3016 9.19302L14.2766 9.20567L14.2725 9.23947L14.285 9.28585H14.3182C14.3306 9.21835 14.418 9.21835 14.4429 9.26055L14.4678 9.2015C14.4097 9.172 14.4667 9.12555 14.4833 9.14667C14.5 9.16777 14.5385 9.09185 14.5385 9.09185C14.5385 9.09185 14.5675 9.1298 14.5385 9.07917C14.5094 9.02855 14.5592 9.00327 14.5592 9.00327C14.5509 8.95267 14.6133 8.9611 14.6133 8.9611L14.6174 8.89365L14.5592 8.88937C14.5468 8.94842 14.4969 8.89785 14.5218 8.8852C14.5468 8.87252 14.5717 8.8472 14.5717 8.8472V8.80502L14.5966 8.7966L14.6008 8.75442H14.6631L14.7171 8.72912L14.7296 8.70802L14.7878 8.70382L14.8709 8.62787L14.8626 8.59417C14.8128 8.59417 14.8626 8.55617 14.8626 8.55617L14.8709 8.49307Z" fill="white"/>
<path d="M13.196 9.32801L13.1212 9.31958L13.1254 9.34908H13.1461C13.1793 9.40816 13.1503 9.55153 13.1503 9.55153C13.1503 9.55153 13.1005 9.55571 13.0921 9.53046C13.0839 9.50516 13.063 9.58531 13.0796 9.59796C13.0962 9.61056 13.1545 9.59796 13.1586 9.64438C13.1627 9.69073 13.196 9.61483 13.196 9.61483V9.32801Z" fill="white"/>
<path d="M13.2125 9.80026L13.2209 9.76228L13.1917 9.74978L13.1958 9.68653L13.2209 9.68218L13.225 9.65256L13.1625 9.69491L13.121 9.66966V9.77083L13.1876 9.85928L13.2125 9.80026ZM13.2291 9.90998L13.2001 9.91416L13.1958 9.94796L13.2291 9.95213V9.90998ZM13.1917 10.1251L13.1565 10.1292V10.1589L13.1917 10.1547V10.1251ZM13.2407 10.0249C13.2505 10.0249 13.2583 10.0169 13.2583 10.0071C13.2583 10.0047 13.2579 10.0024 13.257 10.0003C13.2562 9.9981 13.2549 9.99613 13.2532 9.99447C13.2516 9.9928 13.2497 9.99147 13.2475 9.99056C13.2454 9.98965 13.2431 9.98917 13.2407 9.98916C13.2384 9.98917 13.2361 9.98965 13.2339 9.99056C13.2318 9.99147 13.2298 9.9928 13.2282 9.99446C13.2266 9.99613 13.2253 9.9981 13.2244 10.0003C13.2235 10.0024 13.2231 10.0047 13.2231 10.0071C13.2231 10.0169 13.231 10.0249 13.2407 10.0249Z" fill="white"/>
<path d="M13.2698 10.1135C13.2796 10.1135 13.2875 10.1056 13.2875 10.0958C13.2875 10.0859 13.2796 10.078 13.2698 10.078C13.26 10.078 13.252 10.0859 13.252 10.0958C13.252 10.1056 13.26 10.1135 13.2698 10.1135Z" fill="white"/>
<path d="M13.2707 9.63175C13.2805 9.63175 13.2885 9.62381 13.2885 9.614C13.2885 9.6042 13.2805 9.59625 13.2707 9.59625C13.2609 9.59625 13.253 9.6042 13.253 9.614C13.253 9.62381 13.2609 9.63175 13.2707 9.63175Z" fill="white"/>
<path d="M14.7127 9.10027V9.02017H14.6878L14.6837 8.99054L14.6379 8.98637L14.6296 9.00744H14.6089L14.6046 9.04124H14.6297L14.6338 9.06649L14.6171 9.08337L14.6089 9.10444L14.5756 9.11299L14.5008 9.18474L14.4967 9.21834L14.4759 9.24797L14.451 9.31117L14.3637 9.31534L14.347 9.39129L14.3594 9.45449L14.4342 9.48412L14.4426 9.44197L14.4675 9.42924L14.4718 9.38712L14.4882 9.35749L14.5133 9.32807L14.5216 9.29427L14.5631 9.26902L14.613 9.26049L14.6338 9.23524L14.6422 9.18474L14.6451 9.14679L14.663 9.12134L14.7127 9.10027ZM14.7999 9.27752V9.21847L14.7915 9.16362L14.7293 9.13412L14.6836 9.17629L14.6752 9.23537V9.27329L14.6337 9.28174L14.6253 9.39562L14.5921 9.40829L14.5963 9.45047L14.5049 9.47577L14.4966 9.53059L14.4634 9.55167L14.4466 9.60229L14.4259 9.72462C14.4259 9.72462 14.4633 9.79632 14.4841 9.76257C14.5049 9.72884 14.5381 9.72462 14.5381 9.72462L14.5506 9.69507L14.6628 9.69929C14.6711 9.65284 14.7251 9.66979 14.7251 9.69087C14.7251 9.71194 14.7667 9.69504 14.7667 9.69504L14.7958 9.64867H14.8414L14.8456 9.59809L14.8664 9.58542V9.50947C14.9329 9.48839 14.9246 9.42514 14.9246 9.42514L14.9413 9.40407L14.9329 9.37457C14.8996 9.36189 14.9162 9.33232 14.937 9.34077C14.9579 9.34919 14.908 9.30279 14.908 9.30279C14.883 9.32394 14.8623 9.27752 14.8623 9.27752H14.7999ZM14.8664 9.78777C14.8623 9.83837 14.7999 9.85527 14.7999 9.85527L14.7542 9.84262L14.7293 9.82152L14.7251 9.76244L14.7625 9.75827L14.7708 9.78359L14.8664 9.78777ZM15.0909 9.51802C15.0999 9.55479 15.0992 9.45889 15.1158 9.46317C15.1324 9.46737 15.12 9.40417 15.12 9.40417L15.0452 9.45892C15.0826 9.46317 15.0867 9.50117 15.0909 9.51802ZM15.3112 9.29852C15.3278 9.33652 15.3237 9.39134 15.3859 9.43352C15.407 9.44774 15.3734 9.47572 15.3526 9.46302C15.3319 9.45039 15.2738 9.35754 15.2738 9.35754V9.30274C15.2862 9.26902 15.304 9.28217 15.3112 9.29852ZM15.3651 10.568L15.3402 10.5595L15.3112 10.5807L15.3236 10.5933L15.3359 10.6144L15.3651 10.568ZM15.2072 10.5133V10.564ZM15.8414 10.4311L15.8281 10.4098L15.795 10.4307L15.8082 10.4522L15.8414 10.4311ZM17.0109 11.3315L17.0484 11.3483L17.0525 11.42C17.1024 11.4706 17.2645 11.4285 17.2645 11.4158C17.2645 11.4031 17.2561 11.2598 17.2561 11.2598L17.2353 11.2387L17.2312 11.1332C17.2478 11.0783 17.1522 10.9982 17.1439 11.0152C17.1356 11.032 17.0815 11.0193 17.0815 11.0362C17.0815 11.053 17.0483 11.1374 17.0649 11.1669C17.0815 11.1965 17.0524 11.1965 17.0483 11.226C17.0442 11.2555 17.0026 11.3062 17.0109 11.3315ZM16.9194 11.1628C16.9115 11.1947 16.8821 11.2134 16.8655 11.2007C16.8487 11.188 16.8861 11.2217 16.8945 11.2387C16.9028 11.2555 16.9277 11.2555 16.9361 11.2387C16.9443 11.2217 16.9402 11.1839 16.9486 11.167C16.9568 11.1501 16.9236 11.1459 16.9194 11.1627V11.1628ZM16.7262 10.389H16.7552V10.4692H16.7262V10.389ZM17.1564 9.57702C17.1383 9.55244 17.2395 9.50952 17.2561 9.56017C17.2727 9.61072 17.2561 9.60234 17.2395 9.59812C17.2228 9.59387 17.1814 9.61074 17.1564 9.57702ZM17.2415 9.03687L17.2871 9.04522L17.2916 9.02037L17.2458 9.01202L17.2415 9.03687ZM17.1294 9.05554L17.0985 9.07304L17.0714 9.05594L17.0583 9.07719L17.0916 9.09829L17.0979 9.10227L17.1041 9.09867L17.1292 9.08457L17.1324 9.09232L17.1555 9.08297L17.147 9.06192L17.1418 9.04859L17.1294 9.05554ZM17.2852 8.05852H17.2228C17.2228 8.05852 17.2436 8.06694 17.1855 8.01209C17.1272 7.95729 17.0899 8.02477 17.0899 8.02477L17.0234 8.03319V8.10069L16.9901 8.11332L16.9943 8.15552L17.04 8.15132C17.04 8.15132 17.04 8.20192 17.0525 8.18084C17.065 8.15974 17.1688 8.18502 17.1605 8.23567C17.1571 8.25647 17.2644 8.31154 17.252 8.37902C17.306 8.38749 17.2935 8.44234 17.2935 8.44234L17.3641 8.45077L17.385 8.40859L17.4057 8.41282V8.38749L17.3599 8.37484L17.3517 8.23984L17.3226 8.21877L17.3309 8.18502L17.2977 8.17234L17.3143 8.11754L17.2852 8.05852ZM17.4679 8.48877L17.4347 8.48459L17.3598 8.49724L17.3183 8.57737C17.3183 8.57737 17.3391 8.59002 17.3556 8.61954C17.3723 8.64909 17.3806 8.82197 17.3307 8.85154C17.2809 8.88107 17.3349 8.86414 17.3349 8.86414L17.3266 8.95694C17.3391 8.99914 17.3598 8.97809 17.3723 8.95694C17.3848 8.93594 17.3973 8.93169 17.4139 8.91059C17.4305 8.88947 17.4554 8.85154 17.4596 8.82199C17.4637 8.79249 17.4845 8.74612 17.472 8.73344C17.4596 8.72079 17.4845 8.66177 17.4845 8.66177C17.4845 8.66177 17.5012 8.62797 17.4845 8.59427C17.4679 8.56049 17.4887 8.52252 17.5012 8.50564L17.4679 8.48877ZM17.5182 8.66084L17.5224 8.62709L17.5472 8.63029L17.543 8.66404L17.5182 8.66084ZM17.5167 8.77739L17.4944 8.76607L17.5069 8.74079L17.5291 8.75209L17.5167 8.77739ZM17.4804 8.44252L17.4637 8.40452C17.4637 8.40452 17.4637 8.37084 17.472 8.35389C17.4804 8.33704 17.4554 8.32022 17.443 8.31597C17.4305 8.31172 17.4347 8.27802 17.4305 8.26112C17.4264 8.24427 17.3973 8.23162 17.3973 8.23162C17.3973 8.23162 17.3889 8.16837 17.3889 8.15572C17.3889 8.14307 17.3516 8.12622 17.364 8.11352C17.3765 8.10087 17.3849 8.08402 17.3973 8.07554C17.4098 8.06712 17.3848 8.00804 17.4056 8.02072C17.4264 8.03339 17.4264 8.05447 17.4347 8.07134C17.443 8.08819 17.4305 8.14727 17.4513 8.15994C17.4721 8.17254 17.4471 8.21469 17.4804 8.21469C17.5136 8.21469 17.4929 8.29489 17.4929 8.29489C17.4929 8.29489 17.4845 8.35389 17.5053 8.35814C17.5261 8.36237 17.5137 8.46359 17.5137 8.46359L17.4804 8.44252ZM17.2104 7.75902C17.2228 7.77587 17.2478 7.78852 17.2478 7.80544C17.2478 7.82232 17.2395 7.83494 17.2645 7.83917C17.2893 7.84337 17.306 7.83492 17.3143 7.85602C17.3226 7.87709 17.3226 7.91084 17.3185 7.92772C17.3143 7.94462 17.3226 7.96989 17.3434 7.96989C17.3642 7.96989 17.3683 7.97414 17.3683 7.98679C17.3683 7.99942 17.3933 7.94037 17.3933 7.94037C17.3724 7.92352 17.3558 7.88552 17.3558 7.88552C17.3558 7.88552 17.3351 7.82649 17.3351 7.81807C17.3351 7.80962 17.306 7.80117 17.2936 7.79697C17.2811 7.79272 17.2602 7.75479 17.2602 7.75479L17.2104 7.75904V7.75902ZM17.2519 7.72127C17.2394 7.70434 17.2269 7.69172 17.2103 7.68332C17.1938 7.67484 17.1813 7.66642 17.1646 7.66642C17.148 7.66642 17.1314 7.64952 17.1396 7.62847C17.148 7.60737 17.1271 7.59894 17.1271 7.58204C17.1271 7.56519 17.1396 7.56519 17.1604 7.57784C17.1813 7.59052 17.1771 7.59469 17.1938 7.61584C17.2103 7.63689 17.2186 7.65799 17.2352 7.65377C17.2519 7.64952 17.2644 7.69172 17.281 7.67907C17.2976 7.66642 17.2935 7.70857 17.2935 7.70857L17.2519 7.72127ZM16.7657 8.19777C16.7886 8.22107 16.641 8.21459 16.641 8.19777C16.641 8.18092 16.6535 8.12189 16.6908 8.13447C16.7283 8.14717 16.7324 8.05859 16.7324 8.05859C16.7324 8.05859 16.6992 8.06277 16.7283 8.04592C16.7573 8.02907 16.7283 8.00374 16.7158 7.99109C16.7033 7.97842 16.6908 7.95734 16.6908 7.95734H16.7491C16.774 7.94044 16.7823 7.86034 16.7823 7.86034C16.8321 7.87719 16.8571 7.84344 16.8571 7.84344C16.8571 7.84344 16.8655 7.86874 16.8821 7.88989C16.8987 7.91094 16.8404 7.91939 16.8612 7.93207C16.8821 7.94472 16.8903 7.98264 16.8821 7.99527C16.8737 8.00794 16.8279 7.99952 16.8279 7.98264C16.8279 7.96577 16.8113 8.00374 16.8279 8.02484C16.8446 8.04592 16.8072 8.07542 16.7989 8.07542C16.7905 8.07542 16.7366 8.08389 16.7823 8.10917C16.8279 8.13447 16.8779 8.12187 16.8779 8.12187C16.8779 8.12187 16.9153 8.11762 16.9277 8.13874C16.9402 8.15982 16.9236 8.16404 16.9028 8.16404C16.8821 8.16404 16.7823 8.15557 16.7823 8.15557C16.7823 8.15557 16.7532 8.18512 16.7657 8.19777ZM16.4997 8.23577C16.5205 8.23154 16.5703 8.22729 16.5786 8.23997C16.587 8.25259 16.5495 8.26947 16.5495 8.26947L16.4997 8.27792C16.4831 8.25682 16.4789 8.23999 16.4997 8.23577ZM17.0359 7.88152C17.0691 7.86467 17.1398 7.86467 17.1356 7.83934C17.1315 7.81404 17.1772 7.80559 17.1772 7.80559L17.1897 7.85619L17.2271 7.88149L17.2312 7.92789C17.2312 7.92789 17.2437 7.91947 17.198 7.93214C17.1522 7.94479 17.1814 7.96584 17.1814 7.96584L17.0816 7.97007L17.0691 7.92787L17.0359 7.88152ZM16.8737 7.65377C16.8989 7.65377 16.8654 7.75077 16.9318 7.74234C16.9983 7.73387 16.9361 7.77184 16.9859 7.77607C17.0358 7.78032 17.0233 7.73812 17.0399 7.70862C17.0566 7.67909 17.0483 7.66219 17.0191 7.65377C16.99 7.64534 16.99 7.64534 16.9817 7.61154C16.9735 7.57784 16.9402 7.56937 16.9402 7.56937L16.9277 7.51879L16.8737 7.55252L16.8197 7.62422C16.8197 7.67909 16.8487 7.65377 16.8737 7.65377ZM16.9837 8.01017L16.9962 7.98487L17.0185 7.99622L17.006 8.02152L16.9837 8.01017ZM16.9402 7.97002H16.9651V7.99954H16.9402V7.97002ZM16.9611 7.40802L16.9653 7.44597L16.9405 7.44877L16.9363 7.41087L16.9611 7.40802ZM16.8904 7.80127H16.9154V7.82239H16.8904V7.80127ZM16.825 7.80084L16.8225 7.77562L16.8641 7.77147L16.8665 7.79667L16.825 7.80084ZM16.4821 8.20647L16.4593 8.19649L16.4718 8.16699L16.4946 8.17694L16.4821 8.20647ZM16.3517 8.12969L16.3492 8.10457L16.3909 8.10039L16.3933 8.12552L16.3517 8.12969ZM15.5392 8.12607L15.5404 8.15132L15.6317 8.14714L15.6305 8.12189L15.5392 8.12607ZM15.478 8.15852L15.4698 8.12059L15.4941 8.11512L15.5024 8.15302L15.478 8.15852ZM15.4606 8.18464L15.4527 8.16064L15.4651 8.15642L15.473 8.18044L15.4606 8.18464ZM15.6684 8.11352L15.6643 8.14302L15.7099 8.14727C15.7099 8.14727 15.7307 8.16417 15.7307 8.17677C15.7307 8.18944 15.7598 8.20207 15.7764 8.20207C15.7931 8.20207 15.8388 8.16832 15.8388 8.16832C15.8388 8.16832 15.8596 8.10927 15.843 8.11347C15.8263 8.11767 15.7931 8.14299 15.789 8.11767C15.7847 8.09237 15.7349 8.10502 15.7349 8.10502L15.6684 8.11352ZM15.8762 8.06702C15.8762 8.07964 15.8679 8.09652 15.8928 8.10077C15.9178 8.10494 15.9635 8.08392 15.9676 8.10919C15.9718 8.13449 15.9718 8.15142 16.005 8.16409C16.0382 8.17669 16.0591 8.18094 16.084 8.18094C16.1089 8.18094 16.163 8.17244 16.163 8.17244C16.163 8.17244 16.2218 8.18164 16.2336 8.19357C16.2793 8.23994 16.3084 8.25259 16.3209 8.23152C16.3333 8.21042 16.3167 8.16407 16.3126 8.14719C16.3084 8.13027 16.2502 8.05014 16.2294 8.06702C16.2087 8.08392 16.2045 8.06702 16.1671 8.07964C16.1297 8.09229 16.0507 8.08389 16.0466 8.06702C16.0425 8.05012 15.9843 8.04177 15.9843 8.02484C15.9843 8.00794 15.9428 7.98689 15.9469 8.01217C15.951 8.03747 15.9178 8.05012 15.9094 8.04174C15.9011 8.03329 15.8762 8.06702 15.8762 8.06702ZM16.8322 7.52702L16.8613 7.43427C16.8198 7.42582 16.828 7.37947 16.828 7.37947C16.8239 7.34147 16.7657 7.29932 16.7449 7.31197C16.7242 7.32459 16.7324 7.22337 16.7324 7.22337C16.7324 7.22337 16.7699 7.19812 16.7865 7.21074C16.8031 7.22337 16.6452 6.99987 16.6119 7.02094C16.5787 7.04204 16.504 6.99987 16.5081 6.96187C16.5122 6.92394 16.3585 6.79737 16.3585 6.79737C16.3585 6.79737 16.3086 6.76369 16.3003 6.78899C16.292 6.81427 16.2754 6.83117 16.3003 6.84377C16.3252 6.85647 16.3211 6.82272 16.3501 6.85219C16.3792 6.88172 16.4333 6.91969 16.4125 6.94502C16.3917 6.97037 16.3667 6.97877 16.3667 6.97877L16.3959 7.01252H16.4416L16.4499 7.08419C16.4499 7.08419 16.4997 7.10952 16.5122 7.13904C16.5247 7.16854 16.5247 7.18544 16.5122 7.20234C16.4997 7.21919 16.4749 7.24872 16.479 7.27819C16.4831 7.30772 16.5164 7.32039 16.5164 7.32039L16.5496 7.32464L16.5746 7.33729V7.39217C16.6078 7.38369 16.6618 7.43004 16.6577 7.45962C16.6536 7.48912 16.6659 7.47224 16.7075 7.50179C16.7491 7.53129 16.7367 7.53554 16.7657 7.55664C16.7948 7.57764 16.8198 7.56502 16.8322 7.52702Z" fill="white"/>
<path d="M16.1465 6.95351C16.1424 6.93661 16.134 6.87753 16.159 6.88176C16.1839 6.88601 16.1673 6.88176 16.1964 6.89443C16.2255 6.90711 16.2296 6.87336 16.2296 6.87336H16.2754L16.3335 6.91971L16.3252 6.95771L16.2836 6.96188C16.2629 6.92818 16.2213 6.94083 16.2296 6.97038C16.2379 6.99988 16.2089 7.05471 16.1923 7.05888C16.1756 7.06313 16.1215 7.06313 16.1258 7.03786C16.1299 7.01253 16.1465 6.95351 16.1465 6.95351ZM16.1132 6.83951V6.80578C16.1132 6.80578 16.109 6.77206 16.0883 6.77206C16.0676 6.77206 16.0301 6.74678 16.0384 6.72988C16.0468 6.71298 15.9678 6.69613 15.9678 6.69613C15.9678 6.69613 15.8972 6.62863 15.9221 6.63713C15.947 6.64553 15.9346 6.60756 15.9346 6.60756C15.9346 6.60756 15.8847 6.61598 15.8722 6.61181C15.8597 6.60756 15.8638 6.56961 15.8638 6.56961C15.8638 6.56961 15.814 6.55696 15.814 6.56961C15.814 6.58228 15.8307 6.58228 15.8389 6.60753C15.8473 6.63283 15.8431 6.67503 15.8806 6.68346C15.918 6.69191 15.9262 6.70031 15.9304 6.71721C15.9346 6.73411 15.9803 6.73828 15.9803 6.73828L16.0135 6.75516L16.1132 6.83951ZM15.6521 6.37561L15.6188 6.36726V6.40526L15.6645 6.40941L15.6521 6.37561ZM15.652 6.23226C15.6085 6.19926 15.7101 6.25758 15.7101 6.25758C15.7433 6.25758 15.7641 6.28288 15.7641 6.29558C15.7641 6.30821 15.8099 6.30401 15.8099 6.30401L15.8141 6.27443L15.7808 6.23226L15.7517 6.21123C15.7517 6.21123 15.706 6.20698 15.706 6.19433C15.706 6.18171 15.6686 6.24493 15.652 6.23226ZM16.4165 6.25751C16.4043 6.29441 16.3999 6.34611 16.3791 6.34611C16.3583 6.34611 16.3666 6.40098 16.3666 6.40098C16.3666 6.40098 16.4207 6.40098 16.4373 6.40516C16.4539 6.40933 16.4539 6.45151 16.4539 6.45151C16.5163 6.44733 16.5412 6.53168 16.5329 6.55276C16.5245 6.57383 16.5578 6.57383 16.5578 6.57383C16.5578 6.57383 16.5578 6.64133 16.5495 6.65818C16.5412 6.67508 16.6035 6.68773 16.6201 6.71303C16.6367 6.73836 16.6118 6.82268 16.5994 6.82691C16.5869 6.83116 16.6325 6.84376 16.6284 6.86486C16.6242 6.88598 16.6409 6.86486 16.645 6.89861C16.6492 6.93236 16.6575 7.00403 16.6575 7.00403L16.7157 7.00828C16.724 6.95348 16.8312 6.95136 16.8487 6.95766C16.9193 6.98296 16.9734 7.09263 16.9734 7.11791C16.9734 7.14321 16.9276 7.14748 16.9276 7.14748L16.936 7.26973C17.0066 7.29086 17.0648 7.39211 17.0565 7.40898C17.0482 7.42583 17.1063 7.42166 17.1063 7.42166C17.1147 7.34566 17.1853 7.37101 17.1894 7.39633C17.1937 7.42166 17.2061 7.47648 17.2061 7.47648L17.2269 7.51438L17.2559 7.54391L17.3016 7.53971L17.3141 7.56503L17.3681 7.57351C17.3681 7.57351 17.4139 7.62406 17.418 7.63676C17.4222 7.64936 17.4845 7.64518 17.5011 7.64936C17.5177 7.65361 17.5427 7.66626 17.5468 7.68736C17.551 7.70846 17.576 7.74218 17.576 7.74218C17.576 7.74218 17.6258 7.75486 17.63 7.77168C17.6341 7.78853 17.655 7.82651 17.655 7.82651L17.6964 7.86026L17.7006 7.89826L17.7463 7.90248L17.7588 7.95303L17.8336 7.94886L17.8752 7.91933C17.9292 7.88983 17.9666 7.85183 17.9708 7.83496C17.9749 7.81808 17.9832 7.75486 18.0248 7.76751C18.0663 7.78016 18.0373 7.67468 18.0373 7.67468C18.0373 7.67468 17.9791 7.63251 17.9832 7.61138C17.9874 7.59033 17.9251 7.54818 17.9292 7.53128C17.9333 7.51438 17.8752 7.48068 17.8793 7.46381C17.8834 7.44691 17.8502 7.40051 17.8502 7.40051L17.7879 7.34151L17.7795 7.30351L17.7297 7.29933L17.63 7.17701L17.6341 7.14323L17.605 7.13903V7.09266L17.576 7.07576L17.5302 7.07153L17.4388 6.97036L17.4305 6.92393H17.3848L17.3931 6.83533C17.4222 6.79736 17.4056 6.72568 17.4056 6.72568C17.4056 6.72568 17.3473 6.75518 17.3183 6.74253C17.2892 6.72993 17.3307 6.70036 17.3307 6.70036V6.66663L17.3058 6.64133C17.3058 6.64133 17.2351 6.64981 17.231 6.63716C17.2269 6.62448 17.2144 6.56966 17.2144 6.56966L17.2102 6.49791L17.1812 6.48533L17.177 6.45998L17.1313 6.46418V6.41358L17.1063 6.40516L17.0814 6.39251L17.0773 6.34186L16.9858 6.33768L16.9568 6.29551L16.9235 6.24488L16.8196 6.23646L16.7947 6.21121L16.7531 6.20271L16.7241 6.19006L16.7116 6.21118L16.6326 6.21536L16.6285 6.24068C16.5869 6.26176 16.4207 6.24486 16.4165 6.25751ZM16.853 6.14801C16.8464 6.11471 16.9362 6.08476 16.9569 6.11001C16.9777 6.13533 17.0359 6.13961 17.0442 6.26613C17.0471 6.31143 16.9694 6.21976 16.9694 6.21976L16.907 6.19866C16.8738 6.19018 16.8571 6.16916 16.853 6.14801ZM15.6341 6.19953L15.6114 6.18928L15.628 6.15128L15.6507 6.16156L15.6341 6.19953ZM15.4192 5.78526L15.3651 5.73041V5.68403L15.3485 5.66711L15.3319 5.60811L15.2779 5.59123L15.2238 5.61228L15.1657 5.65026L15.1034 5.65876L15.0701 5.69666L15.2031 5.70926L15.228 5.75151L15.3236 5.75993L15.3859 5.82318C15.44 5.84008 15.4525 5.81476 15.4192 5.78526ZM15.411 5.57851C15.4018 5.54143 15.3486 5.62488 15.4027 5.64171C15.4567 5.65868 15.5107 5.64171 15.5107 5.64171L15.5232 5.61643L15.7309 5.62068C15.7476 5.60378 15.7559 5.57848 15.7559 5.57848C15.7559 5.57848 15.8058 5.56158 15.8265 5.57001C15.8473 5.57851 15.8307 5.51101 15.8099 5.51943C15.7891 5.52786 15.7476 5.52363 15.7476 5.52363H15.6728C15.6686 5.49413 15.6021 5.50676 15.598 5.52363C15.5938 5.54051 15.5689 5.54471 15.5689 5.54471L15.4733 5.55318C15.465 5.57851 15.4152 5.59536 15.411 5.57851ZM14.9995 6.29026C15.0634 6.31053 15.0867 6.29551 15.091 6.27866C15.0951 6.26178 15.0992 6.25753 15.1242 6.25336C15.1491 6.24911 15.12 6.19853 15.0951 6.20273C15.0701 6.20696 15.0452 6.19431 15.0411 6.17323C15.0368 6.15216 14.9953 6.09731 14.9912 6.13948C14.987 6.18168 14.9621 6.18168 14.9662 6.21121C14.9704 6.24066 14.9829 6.28493 14.9995 6.29026ZM14.5217 6.33776C14.5187 6.32283 14.6048 6.32091 14.6173 6.33351C14.6298 6.34618 14.6215 6.36726 14.6589 6.36726C14.6962 6.36726 14.6796 6.39258 14.6755 6.40526C14.6714 6.41788 14.6298 6.41368 14.6256 6.40106C14.6215 6.38838 14.5591 6.38411 14.5591 6.38411C14.5591 6.38411 14.5259 6.35878 14.5217 6.33776ZM15.9005 5.49426L15.9091 5.48716L15.9508 5.45341L15.9351 5.43366L15.9022 5.46028L15.8811 5.43878L15.8635 5.45666L15.8925 5.48618L15.9005 5.49426ZM15.7126 5.38251L15.7585 5.35296L15.7452 5.33163L15.706 5.35688L15.6793 5.34003L15.6662 5.36148L15.6995 5.38253L15.706 5.38678L15.7126 5.38251ZM15.5834 6.28956L15.6043 6.27603L15.5753 6.22971L15.572 6.22456L15.5659 6.22396L15.5244 6.21958L15.5219 6.24483L15.5575 6.24841L15.5834 6.28956ZM14.1975 7.40051L14.2017 7.44693H14.264C14.289 7.44693 14.2432 7.41741 14.2432 7.41741C14.2432 7.41741 14.1934 7.42166 14.1975 7.40051ZM14.2767 7.40188L14.2927 7.38238L14.3176 7.40338L14.3017 7.42288L14.2767 7.40188ZM13.5195 6.61278L13.5372 6.59488L13.5621 6.62021L13.5445 6.63811L13.5195 6.61278ZM14.7092 12.0828L14.73 12.0617L14.7422 12.0494L14.7267 12.0415L14.6852 12.0204L14.674 12.043L14.7 12.0562L14.6914 12.0649L14.7092 12.0828ZM14.3939 11.7805L14.4084 11.76L14.3924 11.7483L14.4049 11.7377L14.389 11.7182L14.364 11.7393L14.3516 11.7498L14.3647 11.7594L14.3939 11.7805ZM17.4952 10.9376C17.4897 10.9161 17.4654 10.9073 17.4627 10.9064L17.4548 10.9304V10.9303C17.4567 10.931 17.4596 10.9325 17.4625 10.9344L17.4676 10.9563C17.4659 10.9588 17.4641 10.9613 17.4621 10.9636L17.4804 10.9807C17.4937 10.9659 17.4986 10.9515 17.4952 10.9376ZM17.4929 10.8549L17.4961 10.817L17.5366 10.8233L17.5335 10.8579L17.4929 10.8549ZM18.4967 10.5291C18.5144 10.5178 18.5372 10.4974 18.5341 10.5449C18.5309 10.5924 18.5122 10.5766 18.4967 10.5924C18.4811 10.6082 18.4717 10.5449 18.4967 10.5291ZM18.7082 10.3501C18.7078 10.3493 18.7076 10.3463 18.7074 10.3442C18.7069 10.3372 18.706 10.3278 18.701 10.3178L18.6788 10.3291C18.6815 10.3348 18.6821 10.3407 18.6825 10.3465C18.6832 10.3538 18.684 10.3623 18.6911 10.3676C18.6955 10.371 18.7012 10.372 18.7079 10.3707L18.7031 10.3462C18.705 10.3465 18.7076 10.3483 18.7082 10.3501ZM18.6527 10.3708C18.6571 10.3884 18.6625 10.4057 18.6687 10.4228L18.692 10.4139C18.6919 10.4137 18.6828 10.3889 18.6768 10.3646L18.6527 10.3708ZM18.5619 10.4703L18.5371 10.4678C18.5351 10.4878 18.5399 10.5123 18.5595 10.5163L18.5644 10.4915C18.5646 10.4915 18.5648 10.4917 18.5649 10.4917C18.5629 10.4899 18.561 10.4797 18.5619 10.4703ZM18.4527 9.96708C18.4521 9.9632 18.4506 9.95953 18.4482 9.95642C18.4458 9.95331 18.4426 9.95087 18.439 9.94933C18.4206 9.94123 18.3895 9.95466 18.3742 9.96501L18.388 9.98606C18.4038 9.97538 18.4245 9.97023 18.4292 9.97258C18.4287 9.97243 18.4282 9.97168 18.428 9.97121L18.4527 9.96708ZM17.3017 8.61958C17.2851 8.63648 17.2477 8.64491 17.2477 8.64491L17.2352 8.69131L17.2144 8.70816C17.2144 8.70816 17.2185 8.72081 17.2144 8.75033C17.2103 8.77983 17.1728 8.79673 17.1728 8.79673L17.1562 8.81783C17.1562 8.81783 17.0561 8.82326 17.044 8.81783C17.0066 8.80096 17.0316 8.75033 17.0565 8.75456C17.0814 8.75881 17.0523 8.68283 17.0523 8.68283L17.0856 8.67863C17.0856 8.67863 17.0897 8.60268 17.1022 8.60268C17.1147 8.60268 17.0981 8.57741 17.0814 8.56473C17.0648 8.55213 17.044 8.50996 17.0273 8.51416C17.0107 8.51833 16.9442 8.51416 16.9442 8.51416L16.9318 8.53948L16.886 8.54788C16.886 8.54788 16.89 8.58051 16.882 8.59008C16.8569 8.61958 16.7614 8.68283 16.8029 8.57743L16.8154 8.55216V8.51416L16.7406 8.50998C16.7406 8.50998 16.7032 8.49731 16.7032 8.48043C16.7032 8.46356 16.6991 8.44251 16.6991 8.44251L16.6118 8.34551L16.5079 8.33286L16.4996 8.31173L16.4373 8.30331C16.3624 8.26538 16.2959 8.29908 16.3084 8.36236C16.3209 8.42568 16.3416 8.45096 16.3001 8.45096C16.2585 8.45096 16.2502 8.41721 16.2502 8.41721C16.2502 8.41721 16.217 8.40453 16.217 8.42141C16.217 8.43831 16.2045 8.47203 16.217 8.48891C16.2294 8.50573 16.2003 8.53106 16.1879 8.51841C16.1755 8.50573 16.1422 8.46786 16.1505 8.45518C16.1588 8.44253 16.0923 8.36236 16.1588 8.34973C16.2253 8.33706 16.1547 8.29908 16.1796 8.29071L16.2128 8.27381H16.2461L16.2669 8.25691L16.2129 8.24853L16.1796 8.24428L16.1173 8.24008C16.055 8.28226 16.0425 8.33288 16.0425 8.33288C16.0092 8.39613 15.9303 8.30756 15.9594 8.27383C15.9885 8.24008 15.868 8.26958 15.8472 8.28646C15.8263 8.30333 15.764 8.29491 15.764 8.29491C15.7516 8.33291 15.6934 8.29073 15.71 8.26541C15.7266 8.24008 15.7266 8.22321 15.7266 8.22321L15.7059 8.21898L15.681 8.26538C15.6228 8.26538 15.6061 8.29908 15.6186 8.32021C15.631 8.34126 15.602 8.31598 15.5936 8.34551C15.5854 8.37501 15.5978 8.37501 15.6228 8.38768C15.6477 8.40036 15.6103 8.40036 15.6269 8.42141C15.6435 8.44253 15.6934 8.42141 15.6643 8.45096C15.6353 8.48046 15.577 8.46786 15.577 8.46786C15.5729 8.50573 15.4939 8.49736 15.4857 8.48471C15.4773 8.47206 15.415 8.39611 15.415 8.39611L15.3359 8.39191C15.3277 8.33291 15.3734 8.36241 15.39 8.31598C15.4067 8.26958 15.415 8.19371 15.415 8.19371C15.415 8.19371 15.3484 8.18948 15.3443 8.21056C15.3402 8.23166 15.2986 8.24431 15.2986 8.24431C15.2986 8.24431 15.2653 8.25693 15.2778 8.27381C15.2903 8.29073 15.2529 8.29908 15.2529 8.29908C15.2529 8.29908 15.2594 8.32633 15.2487 8.33708C15.2155 8.37083 15.1323 8.34126 15.1199 8.32863L15.07 8.30753L15.0201 8.27381L14.962 8.29906L14.9454 8.31598H14.883L14.8789 8.36653L14.9911 8.37916L14.9994 8.48356L14.9537 8.46781H14.9246L14.9121 8.44248L14.8872 8.43823V8.53101L14.9121 8.55213L14.9329 8.57316L14.9745 8.57741L14.9828 8.62798L15.0867 8.63226L15.0992 8.65331L15.1615 8.65756L15.282 8.77981L15.2737 8.81781L15.2529 8.83046C15.2613 8.85998 15.1989 8.84313 15.1989 8.84313V8.86838L15.2279 8.87263L15.2571 8.88946L15.2986 8.81778C15.3443 8.78828 15.3651 8.83046 15.3693 8.85576C15.3734 8.88106 15.3485 8.87683 15.3485 8.87683V8.93593L15.3734 8.94431C15.415 8.99493 15.3568 9.02448 15.3568 9.02448L15.3443 9.06663C15.3318 9.10461 15.2861 9.09613 15.2861 9.09613L15.2696 9.12146L15.2196 9.13413L15.3183 9.14676C15.3277 9.11301 15.3525 9.10458 15.365 9.12146C15.3775 9.13836 15.3775 9.16788 15.3775 9.16788L15.4025 9.17208L15.3983 9.21846L15.4233 9.22693V9.36188L15.4524 9.39563C15.5022 9.37458 15.5022 9.40831 15.4773 9.42513C15.4524 9.44196 15.4689 9.51793 15.4689 9.51793L15.4482 9.53898V9.57276L15.4233 9.58963V9.63601C15.3817 9.61493 15.3318 9.62331 15.3193 9.63601C15.282 9.61068 15.203 9.61913 15.203 9.64026C15.2279 9.67401 15.1739 9.68243 15.1739 9.68243L15.1448 9.71618C15.1656 9.75836 15.1241 9.76253 15.1241 9.76253V9.84271L15.0742 9.88911L15.0784 9.99876C15.0784 10.0283 15.1407 10.0325 15.1531 10.0156C15.1656 9.99876 15.2155 10.0494 15.2155 10.0494H15.2528L15.2612 9.97343L15.2362 9.96078V9.83846L15.2778 9.79203C15.3277 9.77518 15.3111 9.90178 15.3111 9.91441C15.3152 9.96078 15.3359 9.95658 15.3568 9.94811C15.3983 9.93126 15.365 9.99458 15.3318 9.99031C15.2986 9.98613 15.3193 10.0325 15.3193 10.0325L15.3402 10.041L15.3027 10.0705L15.2695 10.1085L15.2279 10.0958L15.1781 10.0916L15.1615 10.062L15.1323 10.0578L15.1282 10.1168L15.1074 10.1421L15.0575 10.1928C15.1241 10.1928 15.0492 10.2391 15.0326 10.2391C15.07 10.2518 15.0285 10.2898 14.9329 10.2603V10.2898L14.8996 10.294L14.9288 10.3277L14.9619 10.3319L14.9495 10.4036C14.9495 10.4584 14.8124 10.4204 14.7999 10.4078L14.7957 10.4838L14.7708 10.4879L14.7749 10.5386L14.7708 10.6103L14.8165 10.6019V10.6314L14.9287 10.6356L15.0908 10.4626L15.1864 10.4416C15.1946 10.3994 15.2362 10.4501 15.2362 10.4501C15.2778 10.4457 15.2861 10.4753 15.2861 10.4753L15.3401 10.4838C15.3858 10.4965 15.3582 10.5009 15.3609 10.5176C15.365 10.5428 15.3858 10.5344 15.3858 10.5344L15.3942 10.4796L15.4191 10.4838L15.3942 10.4542L15.3484 10.4331L15.2986 10.4121C15.2653 10.3657 15.3069 10.3741 15.3401 10.3784H15.3941C15.3941 10.3784 15.4565 10.4627 15.4565 10.4838C15.4565 10.5049 15.4856 10.5091 15.4856 10.5091L15.5229 10.5049L15.5354 10.5344H15.5728L15.5853 10.5596H15.6601L15.6643 10.5217L15.5936 10.5091L15.5895 10.4669L15.5396 10.4542C15.5229 10.3826 15.552 10.3615 15.5728 10.3952L15.5978 10.3994L15.5894 10.3361L15.6185 10.3277L15.6102 10.2391L15.5853 10.2307V10.2011L15.6891 10.2054C15.6809 10.1505 15.6933 10.1252 15.6933 10.1252H15.7224L15.7266 10.1464L15.8537 10.1584L15.9436 10.0553C15.9391 10.0474 15.9526 10.0426 15.9428 10.0325C15.9303 10.0198 15.9136 10.0325 15.8928 10.0198C15.872 10.0072 15.8928 9.93546 15.8886 9.91861C15.8845 9.90176 15.9594 9.87636 15.9469 9.91438C15.9344 9.95238 15.9469 9.96923 15.9469 9.96923C16.0009 9.91861 16.0466 9.97341 16.0425 9.98608C16.0382 9.99873 16.0715 10.0114 16.0923 9.99873C16.1131 9.98608 16.138 10.0367 16.1297 10.062C16.1213 10.0873 16.0466 10.0831 16.0425 10.0578C16.0382 10.0324 16.0257 10.0409 16.0175 10.0536C16.0092 10.0662 15.9718 10.0746 15.951 10.062C15.9468 10.0594 15.9448 10.0573 15.9436 10.0553L15.8537 10.1584L15.8595 10.159C15.9094 10.1885 15.8845 10.2265 15.8679 10.2349C15.8512 10.2433 15.8221 10.2433 15.8221 10.2433L15.8139 10.2602L15.7058 10.2686L15.6975 10.3109C15.6434 10.3023 15.6227 10.3614 15.6352 10.3909C15.6477 10.4204 15.6352 10.4457 15.6352 10.4457L15.6809 10.4669L15.739 10.4501C15.7474 10.4078 15.7847 10.3994 15.818 10.3741C15.8512 10.3488 15.9053 10.4204 15.8886 10.4542C15.872 10.4879 15.872 10.5006 15.872 10.5006L15.8761 10.5386L15.8346 10.5554L15.8014 10.5723L15.7971 10.5934H15.685L15.6642 10.6145L15.6102 10.6188L15.5935 10.644L15.5562 10.6483C15.5562 10.6483 15.4938 10.6778 15.5188 10.7115C15.5437 10.7453 15.4149 10.7411 15.3857 10.6947C15.3774 10.7368 15.3317 10.6989 15.3317 10.6989L15.286 10.6862L15.2819 10.623C15.2736 10.5808 15.1946 10.5808 15.1988 10.6103C15.2029 10.6399 15.0491 10.623 15.0491 10.623L14.9993 10.6472L14.9535 10.6736L14.9494 10.6947L14.8745 10.7031L14.8413 10.72L14.8289 10.6947H14.7956L14.7624 10.7411C14.6751 10.7454 14.592 10.7959 14.6003 10.817C14.6086 10.8381 14.5671 10.8593 14.5671 10.8593L14.5297 10.8718L14.5048 10.9098L14.4549 10.9267L14.4465 11.0153L14.4217 11.0321V11.0701L14.3925 11.0785V11.0996L14.351 11.1038L14.3759 11.1671L14.4092 11.184C14.4674 11.1924 14.4424 11.2642 14.4424 11.2642L14.4756 11.2683L14.4923 11.3147L14.5255 11.3822C14.538 11.4329 14.5754 11.4202 14.592 11.416C14.6086 11.4118 14.6252 11.4666 14.6252 11.4666L14.7914 11.4708C14.7914 11.4708 14.7832 11.4877 14.8123 11.4961C14.8413 11.5045 15.0325 11.513 15.0409 11.5004C15.0325 11.4624 15.1447 11.4539 15.1905 11.4877C15.2361 11.5214 15.2985 11.5004 15.2985 11.5004L15.3608 11.5762L15.4024 11.669L15.4731 11.6901L15.5229 11.7028L15.5396 11.7745L15.5769 11.7787L15.5894 11.8251C15.6352 11.8588 15.5769 11.9306 15.5769 11.9306V12.0233L15.6102 12.0402L15.606 12.074L15.6601 12.1287L15.7224 12.133L15.8803 12.3017L16.005 12.3396L16.0257 12.4071L16.059 12.4029L16.0839 12.3819L16.1837 12.3776L16.2336 12.3312L16.2876 12.3228L16.7489 11.9306L16.7073 11.9052V11.8125C16.7821 11.7577 16.7862 11.6606 16.7156 11.6522C16.662 11.6458 16.6865 11.5889 16.7364 11.5805L16.7655 11.5679V11.5299L16.861 11.4413V11.3738L16.6533 11.2008C16.5618 11.1672 16.6533 10.9647 16.7156 10.9689C16.778 10.9731 16.7115 10.6568 16.7115 10.6568L16.6782 10.64L16.6865 10.5387H16.6408L16.566 10.6357L16.5453 10.7032C16.5369 10.7918 16.2793 10.7749 16.2668 10.7622C16.2543 10.7495 16.167 10.7116 16.167 10.7116C16.167 10.7116 16.1005 10.6568 16.0881 10.6737C16.0756 10.6906 16.0175 10.6526 16.0175 10.6652C16.0175 10.6779 15.9635 10.6358 15.9635 10.6358L15.8804 10.6062L15.9427 10.5935L15.9302 10.5429L16.0382 10.5978C16.0507 10.6146 16.1047 10.6104 16.1047 10.6104L16.1213 10.6315C16.1213 10.6315 16.1546 10.6273 16.1755 10.6526C16.1962 10.6779 16.3042 10.6568 16.3042 10.6568L16.3333 10.6821L16.379 10.699L16.5079 10.7032L16.512 10.6231L16.5369 10.5978L16.5328 10.5471L16.5619 10.5219V10.4797L16.5868 10.4713L16.5909 10.3785L16.6117 10.3743V10.1718L16.5494 10.1128C16.5453 10.1339 16.4788 10.1339 16.4788 10.1339C16.4788 10.1339 16.4621 10.1634 16.4497 10.1634C16.4372 10.1634 16.4663 10.2013 16.458 10.2266C16.4497 10.2519 16.4164 10.2519 16.4164 10.2519L16.354 10.2688L16.3374 10.2899H16.2709L16.2627 10.2351L16.3374 10.214L16.3789 10.1929L16.3998 10.1507C16.4039 10.1086 16.4538 10.1128 16.4538 10.1128C16.4538 10.1128 16.5494 10.0326 16.5535 9.99471C16.5577 9.95673 16.5909 9.85128 16.6491 9.85128H16.7572C16.7987 9.83436 16.7862 9.77956 16.7862 9.77956L16.8403 9.77118L16.8486 9.80068C16.8486 9.80068 16.9234 9.80911 16.9317 9.79646C16.9401 9.78386 16.9567 9.75428 16.9775 9.76696C16.9982 9.77958 17.0647 9.73741 17.0647 9.73741C17.0689 9.70788 17.1728 9.72053 17.1728 9.72053L17.1853 9.68261C17.1853 9.68261 17.1146 9.58561 17.1022 9.58561C17.0897 9.58561 17.0232 9.52648 17.0148 9.54761C16.9484 9.53076 16.9525 9.43793 16.9525 9.43793L16.9276 9.37893C16.9276 9.34513 16.8653 9.27343 16.8528 9.28193C16.7904 9.23553 16.8362 9.18068 16.8528 9.17646C16.8694 9.17228 16.911 9.11321 16.911 9.11321L16.9318 9.05413L17.0024 9.03313L17.0107 8.97826L16.9734 8.97403C16.9734 8.97403 17.0149 8.89811 17.0357 8.89811C17.0565 8.89811 17.1936 8.89811 17.206 8.88963C17.2185 8.88126 17.2434 8.81376 17.2434 8.80111C17.2434 8.78843 17.2767 8.78421 17.2891 8.77996C17.3016 8.77578 17.3307 8.74203 17.339 8.72516C17.3473 8.70816 17.3183 8.60271 17.3016 8.61958H17.3017Z" fill="white"/>
<path d="M14.9995 10.14C15.0058 10.1338 15.012 10.159 15.0245 10.1559C15.0368 10.1527 15.0431 10.178 15.0307 10.178C15.0182 10.178 15.0182 10.1939 15.0182 10.2002C15.0182 10.2065 15.0182 10.2223 15.0088 10.2318C14.9995 10.2413 14.9901 10.2349 14.9776 10.2286C14.9652 10.2223 14.959 10.2223 14.9434 10.2223C14.9278 10.2223 14.9402 10.2476 14.9402 10.2476C14.9402 10.2476 14.8748 10.2445 14.8872 10.2349C14.8997 10.2255 14.9122 10.2223 14.9029 10.2159C14.8935 10.2096 14.9029 10.2033 14.9029 10.1907C14.9029 10.178 14.9341 10.1844 14.9246 10.1748C14.9154 10.1653 14.9248 10.1286 14.9402 10.1495L14.9496 10.1273C14.9402 10.1179 14.9465 10.1147 14.9278 10.1084C14.9091 10.1021 14.9246 10.0641 14.9246 10.0641L14.9278 10.0388C14.934 10.0072 14.9963 10.004 14.9995 10.0325C15.0026 10.061 14.9995 10.08 14.9995 10.08L15.0182 10.0862C15.0182 10.0862 15.0151 10.1053 14.9995 10.1053C14.9838 10.1053 14.9995 10.1147 14.9901 10.1242L14.9995 10.14V10.14ZM14.7938 10.1718C14.8031 10.1528 14.8249 10.0705 14.8499 10.0958C14.8747 10.1212 14.8904 10.0958 14.8904 10.0958C14.8904 10.0958 14.9029 10.1085 14.8966 10.1338C14.8904 10.1591 14.8841 10.1844 14.8685 10.1876C14.853 10.1908 14.8405 10.2003 14.8218 10.2034C14.8032 10.2066 14.7938 10.1718 14.7938 10.1718Z" fill="white"/>
</g>
<defs>
<clipPath id="clip0_89_26">
<rect width="30" height="20" fill="white"/>
</clipPath>
</defs>
</svg>
