<svg width="50" height="50" viewBox="0 0 50 50" fill="none" xmlns="http://www.w3.org/2000/svg">
<g clip-path="url(#clip0_142_15)">
<mask id="mask0_142_15" style="mask-type:luminance" maskUnits="userSpaceOnUse" x="0" y="0" width="50" height="50">
<path d="M50 0H0V50H50V0Z" fill="white"/>
</mask>
<g mask="url(#mask0_142_15)">
<path d="M35.9233 42.3707C34.525 39.0127 31.7045 37.5 29.4196 37.5H29.375C28.942 39.5883 27.0804 41.0893 24.9625 41.0707C22.8732 41.0517 21.0562 39.559 20.6295 37.5H20.5804C18.2955 37.5 15.475 39.0127 14.0625 42.3707C15.6232 43.3463 19.5152 45.4883 24.9223 45.5063C30.4125 45.525 34.3653 43.3447 35.9233 42.3707Z" fill="#1D00C3"/>
<path d="M25 0C11.1929 0 0 11.1929 0 25C0 38.807 11.1929 50 25 50C38.807 50 50 38.807 50 25C49.984 11.1991 38.801 0.0160714 25 0ZM12.4446 43.4483C2.91071 36.9617 -0.111607 24.2786 5.4741 14.1893C5.72053 13.7741 6.25267 13.6313 6.675 13.8652C7.09733 14.0991 7.25627 14.6268 7.03483 15.0554C2.09643 23.9795 4.45893 35.176 12.5812 41.3437C13.3527 39.6027 14.6098 38.1223 16.2027 37.0787C15.0304 36.466 14.2937 35.2553 14.2902 33.933V18.7545C14.2902 12.8375 19.0875 8.04017 25.0045 8.04017C30.9214 8.04017 35.7187 12.8375 35.7187 18.7545V33.933C35.7143 35.2543 34.9777 36.4653 33.8063 37.0767C35.399 38.1207 36.6563 39.6027 37.4277 41.3437C43.6517 36.609 46.6457 28.75 45.149 21.0741C43.6527 13.3982 37.925 7.2393 30.3786 5.19017C22.8321 3.14107 14.7759 5.55627 9.60267 11.4205C9.2759 11.7902 8.7116 11.8259 8.34197 11.4991C7.97233 11.1723 7.9366 10.608 8.2634 10.2384C13.9759 3.74197 22.9286 1.13125 31.2375 3.5393C39.5473 5.94643 45.717 12.9393 47.0713 21.4839C48.426 30.0286 44.717 38.5803 37.5597 43.4403C35.949 44.5447 31.2062 47.4867 24.5143 47.341C18.4071 47.208 14.0946 44.5787 12.4446 43.4483Z" fill="#1D00C3"/>
<path d="M31.6903 30.5714C31.3769 31.1553 31.0179 31.7143 30.6188 32.2437C30.259 32.7419 29.8742 33.2205 29.4644 33.6787V35.7143H32.1429C33.1295 35.7143 33.9285 34.915 33.9285 33.9287V27.4919C33.6145 27.7634 33.2331 27.9446 32.8242 28.0178C32.576 28.633 32.1367 29.6839 31.6903 30.5714Z" fill="#1D00C3"/>
<path d="M24.9999 36.6069C24.2561 36.6053 23.5338 36.3633 22.9391 35.9169L22.7043 35.7303C22.5731 35.6293 22.449 35.5153 22.3213 35.4089V36.6069C22.3213 38.0866 23.5204 39.2856 24.9999 39.2856C26.4793 39.2856 27.6784 38.0866 27.6784 36.6069V35.4126C27.5508 35.5186 27.4275 35.6313 27.2972 35.7329C27.2463 35.7786 27.1472 35.8553 27.0597 35.9213C26.465 36.3659 25.7427 36.6069 24.9999 36.6069Z" fill="#1D00C3"/>
<path d="M33.2378 21.5054C33.1066 21.5742 32.9584 21.6054 32.8102 21.5947C29.7762 21.3912 26.9566 19.9608 25.0003 17.634C23.7878 19.1242 22.1878 20.2519 20.3771 20.8929C19.3548 21.284 18.2789 21.5188 17.186 21.5894C17.0441 21.5867 16.9039 21.5563 16.7735 21.5001C16.6869 21.4563 16.5923 21.4322 16.495 21.4287C16.3985 21.426 16.3057 21.4635 16.2387 21.5322C16.0244 21.7501 15.9771 22.3054 16.3521 23.0501C16.503 23.3528 16.6316 23.6224 16.7218 23.8617C16.9646 24.4403 17.086 25.0626 17.0789 25.6894C17.0664 25.8447 17.1075 25.9992 17.1968 26.1269C17.3771 26.2492 17.5941 26.3046 17.811 26.2822C18.1807 26.2822 18.5128 26.5099 18.645 26.8554C18.6512 26.8724 19.2887 28.5278 19.9057 29.7688C20.1825 30.2644 20.4914 30.7421 20.8307 31.1974C21.6628 32.3751 22.661 33.4261 23.7959 34.3161L24.0048 34.4831C24.5923 34.9267 25.4039 34.9267 25.9914 34.4831C26.0476 34.4421 26.1093 34.3937 26.1646 34.3464C27.3119 33.4484 28.3235 32.3876 29.1655 31.1983C29.5066 30.7447 29.8155 30.2671 30.0887 29.7697C30.7137 28.5197 31.3548 26.8671 31.361 26.8501C31.4932 26.5046 31.8253 26.2769 32.195 26.2769C32.411 26.3001 32.628 26.2447 32.8066 26.1206C32.8968 25.9938 32.9387 25.8394 32.9271 25.6849C32.9173 25.0519 33.0387 24.4242 33.2843 23.8412C33.3682 23.6171 33.4968 23.3474 33.6468 23.0465C33.8058 22.7563 33.9022 22.4358 33.9288 22.1063V22.0715C33.9475 21.8769 33.8895 21.6831 33.7665 21.5313C33.6145 21.4081 33.4002 21.3974 33.2378 21.5054Z" fill="#1D00C3"/>
<path d="M17.3106 19.7912C18.1481 19.7063 18.9713 19.5135 19.7597 19.2171C21.6231 18.5679 23.2043 17.2947 24.2347 15.6117C24.4079 15.3599 24.6945 15.209 24.9999 15.209C25.3052 15.209 25.5918 15.3599 25.765 15.6117C27.3115 17.9921 29.8615 19.5349 32.6883 19.7992C33.0838 19.6501 33.5123 19.6117 33.9283 19.6885V18.7501C33.9283 13.8188 29.9311 9.82153 24.9999 9.82153C20.0686 9.82153 16.0713 13.8188 16.0713 18.7501V19.6894C16.4856 19.6108 16.9141 19.6456 17.3106 19.7912Z" fill="#1D00C3"/>
<path d="M17.857 35.7143H20.5356V33.6787C20.1258 33.2205 19.74 32.741 19.3802 32.2419C18.9865 31.7107 18.6284 31.1535 18.3088 30.575C17.8624 29.6821 17.4275 28.633 17.1802 28.0187C16.7695 27.9455 16.3865 27.7625 16.0713 27.4893V33.9287C16.0713 34.915 16.8704 35.7143 17.857 35.7143Z" fill="#1D00C3"/>
</g>
</g>
<defs>
<clipPath id="clip0_142_15">
<rect width="50" height="50" fill="white"/>
</clipPath>
</defs>
</svg>
