<svg width="30" height="30" viewBox="0 0 30 30" fill="none" xmlns="http://www.w3.org/2000/svg">
<g clip-path="url(#clip0_129_20)">
<path d="M24.0174 16.049L29.982 7.03125H20.8346L20.6638 7.69295C20.2255 9.39171 19.4029 11.694 17.9736 13.0156C17.7969 13.1788 17.6296 13.3099 17.4755 13.415V7.03125H9.5084V8.79501H10.2527V12.7924C9.35963 12.0069 8.23742 10.508 7.94354 7.81746L7.85771 7.03125H0L0.269851 8.12439C1.24008 12.0557 2.69553 15.2763 4.59616 17.6967C6.14774 19.6729 7.99573 21.1237 10.0886 22.0088C11.9577 22.7994 13.6786 22.9932 14.9169 22.9932C16.0558 22.9932 16.7861 22.8291 16.8475 22.8149L17.5192 22.6584L17.554 20.2354L20.5457 22.8381H30.0001L24.0174 16.049ZM15.8445 16.4108L15.7763 21.189C14.7914 21.2766 12.8402 21.2801 10.6869 20.3465C8.88859 19.5667 7.29123 18.2897 5.93923 16.5509C4.39085 14.5596 3.15901 11.9543 2.2705 8.79501H6.30041C7.17267 13.8538 10.6821 15.1627 10.8384 15.2184L12.0165 15.6386V8.79501H15.712V15.6473L16.6399 15.5988C16.7527 15.5928 17.7774 15.5111 18.9875 14.474C20.3624 13.2955 21.4384 11.3871 22.1905 8.79501H26.7008L21.8014 16.2019L26.0949 21.0741H21.2054L15.8445 16.4108Z" fill="white"/>
</g>
<defs>
<clipPath id="clip0_129_20">
<rect width="30" height="30" fill="white"/>
</clipPath>
</defs>
</svg>
